<svg id="Layer_1" data-name="Layer 1" xmlns="http://www.w3.org/2000/svg" viewBox="0 0 103.56 49.85"><defs><style>.cls-1{fill:#ff9e1d;}.cls-2{fill:#ddd;}</style></defs><title>csapat-glider-horizontal-white</title><g id="Réteg_2" data-name="Réteg 2"><g id="Réteg_1" data-name="Réteg 1"><path class="cls-1" d="M26,18.38a31.43,31.43,0,0,0,6.76-2.67C38.46,13.11,46.26,9.37,56,9.4a67.26,67.26,0,0,0-22.49-6c-8.39,2.87-15.22,7.09-18.21,10.65-1.1,1.31-1.64,2.49-1.26,3.08C14.14,17.33,15.57,19.49,26,18.38Z" transform="translate(-0.01 0)"/><path class="cls-2" d="M70.13,14.2c3,2.18,5.42,3.82,7.37,4.19,10.16,1.08,11.86-1.18,12.1-1.64,0.43-.82-0.18-2.29-1.64-3.93C81.64,5.65,61.59-3.18,41,1.14A68.58,68.58,0,0,1,70.13,14.2Z" transform="translate(-0.01 0)"/><path class="cls-2" d="M14,24.36v5.21a9.31,9.31,0,0,0-2.44-2.24A4.69,4.69,0,0,0,9.1,26.7a4.86,4.86,0,0,0-3.68,1.55A5.46,5.46,0,0,0,4,32.14,5.56,5.56,0,0,0,5.38,36,4.76,4.76,0,0,0,9,37.57a5,5,0,0,0,2.55-.64A9.85,9.85,0,0,0,14,34.63v5.18a10.34,10.34,0,0,1-4.77,1.24A9.12,9.12,0,0,1,2.66,38.5,8.48,8.48,0,0,1,0,32.14a8.63,8.63,0,0,1,2.68-6.42,9.1,9.1,0,0,1,6.59-2.61A9.82,9.82,0,0,1,14,24.36Z" transform="translate(-0.01 0)"/><path class="cls-2" d="M27.68,26.52l-3.24,1.73a2.25,2.25,0,0,0-1.87-1.57,1.32,1.32,0,0,0-.93.36,1.21,1.21,0,0,0-.38.91c0,0.65.76,1.3,2.27,1.94a13.52,13.52,0,0,1,4.2,2.47,4.26,4.26,0,0,1,1.08,3A5.37,5.37,0,0,1,27,39.53a6.5,6.5,0,0,1-10.33-2.6L20,35.38a7.33,7.33,0,0,0,1.06,1.55,2.45,2.45,0,0,0,1.71.66c1.33,0,2-.6,2-1.81a2.47,2.47,0,0,0-1.54-2l-1.18-.58-1.2-.57A7.44,7.44,0,0,1,18.44,31a4.11,4.11,0,0,1-.87-2.68,4.84,4.84,0,0,1,1.52-3.66,5.29,5.29,0,0,1,3.76-1.45C25,23.16,26.62,24.28,27.68,26.52Z" transform="translate(-0.01 0)"/><path class="cls-1" d="M44.81,23.63h3.94v17H44.81v-1.8a7.52,7.52,0,0,1-10.63.1l-0.37-.38A9.46,9.46,0,0,1,31.5,32a9.15,9.15,0,0,1,2.28-6.36,7.36,7.36,0,0,1,5.72-2.55,7.19,7.19,0,0,1,5.31,2.44V23.63ZM35.51,32a5.91,5.91,0,0,0,1.3,4,4.29,4.29,0,0,0,3.39,1.55,4.51,4.51,0,0,0,3.52-1.5,6.45,6.45,0,0,0,0-7.87,4.43,4.43,0,0,0-3.49-1.52,4.32,4.32,0,0,0-3.38,1.53A5.66,5.66,0,0,0,35.51,32Z" transform="translate(-0.01 0)"/><path class="cls-1" d="M57.63,49.85H53.7V23.63h3.93v1.85a7.23,7.23,0,0,1,5.26-2.32,7.33,7.33,0,0,1,5.77,2.58A9.33,9.33,0,0,1,71,32.21a9.19,9.19,0,0,1-2.28,6.36,7.43,7.43,0,0,1-11.05.14V49.85Zm9.32-17.63a5.87,5.87,0,0,0-1.32-4,4.3,4.3,0,0,0-3.38-1.55,4.49,4.49,0,0,0-3.51,1.5,5.7,5.7,0,0,0-1.34,3.94A5.84,5.84,0,0,0,58.74,36a4.42,4.42,0,0,0,3.49,1.51A4.24,4.24,0,0,0,65.57,36,5.55,5.55,0,0,0,66.95,32.22Z" transform="translate(-0.01 0)"/><path class="cls-1" d="M87.63,23.63h3.94v17H87.64v-1.8A7.53,7.53,0,0,1,77,38.92h0l-0.35-.37A9.46,9.46,0,0,1,74.32,32a9.15,9.15,0,0,1,2.25-6.36,7.36,7.36,0,0,1,5.72-2.55,7.23,7.23,0,0,1,5.32,2.44V23.63h0ZM78.32,32a5.91,5.91,0,0,0,1.3,4A4.29,4.29,0,0,0,83,37.59a4.51,4.51,0,0,0,3.52-1.5,6.45,6.45,0,0,0,0-7.87A4.43,4.43,0,0,0,83,26.7a4.34,4.34,0,0,0-3.38,1.53A5.66,5.66,0,0,0,78.32,32Z" transform="translate(-0.01 0)"/><path class="cls-1" d="M100.57,27.29V40.61H96.65V27.29H95V23.63h1.68V17.41h3.92v6.22h3v3.66h-3Z" transform="translate(-0.01 0)"/></g></g></svg>